<svg viewBox="0 0 130 127" xmlns="http://www.w3.org/2000/svg" xmlns:xlink="http://www.w3.org/1999/xlink"><defs><filter x="-10.9%" y="-32.4%" width="121.8%" height="164.8%" filterUnits="objectBoundingBox" id="c"><feOffset in="SourceAlpha" result="shadowOffsetOuter1"/><feGaussianBlur stdDeviation="5" in="shadowOffsetOuter1" result="shadowBlurOuter1"/><feColorMatrix values="0 0 0 0 0 0 0 0 0 0 0 0 0 0 0 0 0 0 0.5 0" in="shadowBlurOuter1"/></filter><filter x="-54.4%" y="-53.8%" width="208.8%" height="207.5%" filterUnits="objectBoundingBox" id="e"><feGaussianBlur stdDeviation="25" in="SourceGraphic"/></filter><path d="M55.075 127c-15.152 0-27.54-12.194-27.54-27.239L0 99.76c0-13.497 11.022-24.438 24.615-24.436h2.921V0h46.09c7.83 0 15.161 1.295 21.995 3.885 6.833 2.59 12.812 6.16 17.937 10.709 5.125 4.549 9.146 9.887 12.064 16.015C128.541 36.737 130 43.276 130 50.225c0 6.823-1.46 13.235-4.378 19.237-2.918 6.002-6.94 11.245-12.064 15.731-5.125 4.486-11.104 8.023-17.937 10.614-6.834 2.59-14.211 3.952-22.041 3.952l-18.51.002.005 27.239zm-.005-51.679l18.508-.002c3.844 0 7.558-.929 11.046-2.255 3.487-1.327 6.512-3.128 9.075-5.402 2.562-2.275 4.591-4.896 6.085-7.866 1.495-2.969 2.243-6.16 2.243-9.57 0-3.539-.748-6.855-2.243-9.95A25.466 25.466 0 0093.7 32.22c-2.563-2.275-5.588-4.043-9.075-5.307-3.488-1.264-7.197-2.082-11.04-2.082l-18.508.01-.006 50.48z" id="a"/><path d="M0 46.324c.024-13.506 11.05-24.446 24.652-24.458l31.483-.029L137.339 0 125.21 46.324H0z" id="d"/></defs><g fill="none" fill-rule="evenodd"><path d="M55.075 127c-15.152 0-27.54-12.194-27.54-27.239L0 99.76c0-13.497 11.022-24.438 24.615-24.436h2.921V0h46.09c7.83 0 15.161 1.295 21.995 3.885 6.833 2.59 12.812 6.16 17.937 10.709 5.125 4.549 9.146 9.887 12.064 16.015C128.541 36.737 130 43.276 130 50.225c0 6.823-1.46 13.235-4.378 19.237-2.918 6.002-6.94 11.245-12.064 15.731-5.125 4.486-11.104 8.023-17.937 10.614-6.834 2.59-14.211 3.952-22.041 3.952l-18.51.002.005 27.239zm-.005-51.679l18.508-.002c3.844 0 7.558-.929 11.046-2.255 3.487-1.327 6.512-3.128 9.075-5.402 2.562-2.275 4.591-4.896 6.085-7.866 1.495-2.969 2.243-6.16 2.243-9.57 0-3.539-.748-6.855-2.243-9.95A25.466 25.466 0 0093.7 32.22c-2.563-2.275-5.588-4.043-9.075-5.307-3.488-1.264-7.197-2.082-11.04-2.082l-18.508.01-.006 50.48z" fill="#5E19DA"/><mask id="b" fill="#fff"><use xlink:href="#a"/></mask><g mask="url(#b)"><g transform="translate(0 53.61)"><use fill="#000" filter="url(#c)" xlink:href="#d"/><use fill="#611BE0" xlink:href="#d"/></g><path fill="#5D1ADA" filter="url(#e)" d="M0 96.803L137.863 0l-19.431 139.492z" transform="translate(27.258 -3.643)"/></g></g></svg>